<?xml version="1.0" encoding="iso-8859-1"?>
<!-- Generator: Adobe Illustrator 19.0.0, SVG Export Plug-In . SVG Version: 6.00 Build 0)  -->
<svg version="1.1" id="Layer_1" xmlns="http://www.w3.org/2000/svg" xmlns:xlink="http://www.w3.org/1999/xlink" x="0px" y="0px"
	 viewBox="0 0 512 512" style="enable-background:new 0 0 512 512;" xml:space="preserve">
<g>
	<g>
		<path d="M378,241c-6.84,0-13.462,0.938-19.763,2.662L311.392,151H348c8.284,0,15-6.716,15-15s-6.716-15-15-15h-61
			c-11.178,0-18.418,11.815-13.387,21.768L308.109,211h-88.838l-15-30H240c8.284,0,15-6.716,15-15s-6.716-15-15-15h-90
			c-8.284,0-15,6.716-15,15s6.716,15,15,15h20.729l21.467,42.933l-21.687,26.024C159.933,244.248,147.839,241,135,241
			c-41.355,0-75,33.645-75,75c0,41.355,33.645,75,75,75c36.22,0,66.522-25.808,73.491-60h46.429
			c4.276,0.034,9.657-1.889,12.604-5.397c57.468-68.962,46.501-55.958,61.49-73.253l2.469,4.885
			C314.149,270.984,303,292.208,303,316c0,41.355,33.645,75,75,75c41.355,0,75-33.645,75-75C453,274.645,419.355,241,378,241z
			 M135,361c-24.813,0-45-20.187-45-45s20.187-45,45-45c5.496,0,10.763,0.994,15.636,2.806l-27.159,32.591
			c-5.304,6.364-4.443,15.823,1.921,21.126c6.365,5.304,15.822,4.444,21.126-1.92l27.149-32.579
			C177.686,299.754,180,307.611,180,316C180,340.813,159.813,361,135,361z M208.491,301c-2.417-11.858-7.652-22.697-14.956-31.811
			l13.306-15.967L230.73,301H208.491z M258.159,288.778L234.27,241h64.88C292.588,248.573,299.737,238.884,258.159,288.778z
			 M378,361c-24.813,0-45-20.187-45-45c0-12.039,4.761-22.979,12.488-31.063l19.125,37.831c2.641,5.224,7.92,8.236,13.398,8.236
			c2.275,0,4.586-0.52,6.756-1.617c7.394-3.738,10.356-12.761,6.619-20.154L372.25,271.38c1.885-0.242,3.801-0.38,5.75-0.38
			c24.813,0,45,20.187,45,45S402.813,361,378,361z"/>
	</g>
</g>
<g>
	<g>
		<path d="M437,0H75C33.645,0,0,33.645,0,75v362c0,41.355,33.645,75,75,75h362c41.355,0,75-33.645,75-75V75
			C512,33.645,478.355,0,437,0z M482,437c0,24.813-20.187,45-45,45H75c-24.813,0-45-20.187-45-45V75c0-24.813,20.187-45,45-45h362
			c24.813,0,45,20.187,45,45V437z"/>
	</g>
</g>
<g>
</g>
<g>
</g>
<g>
</g>
<g>
</g>
<g>
</g>
<g>
</g>
<g>
</g>
<g>
</g>
<g>
</g>
<g>
</g>
<g>
</g>
<g>
</g>
<g>
</g>
<g>
</g>
<g>
</g>
</svg>
