<?xml version="1.0" encoding="UTF-8"?>
<svg width="36px" height="35px" viewBox="0 0 36 35" version="1.1" xmlns="http://www.w3.org/2000/svg" xmlns:xlink="http://www.w3.org/1999/xlink">
    <!-- Generator: Sketch 52.6 (67491) - http://www.bohemiancoding.com/sketch -->
    <title>facebook-1</title>
    <desc>Created with Sketch.</desc>
    <g id="Page-1" stroke="none" stroke-width="1" fill="none" fill-rule="evenodd">
        <g id="Desktop-HD" transform="translate(-364.000000, -1935.000000)" fill="#9DC154" fill-rule="nonzero">
            <g id="facebook-1" transform="translate(364.000000, 1935.000000)">
                <path d="M31.78125,0 L4.21875,0 C1.89253125,0 0,1.83996094 0,4.1015625 L0,30.8984375 C0,33.1600391 1.89253125,35 4.21875,35 L31.78125,35 C34.1074688,35 36,33.1600391 36,30.8984375 L36,4.1015625 C36,1.83996094 34.1074688,0 31.78125,0 Z M33.1875,30.8984375 C33.1875,31.6523047 32.5566563,32.265625 31.78125,32.265625 L23.765625,32.265625 L23.765625,21.1230469 L28.1102344,21.1230469 L28.828125,16.8847656 L23.765625,16.8847656 L23.765625,13.9453125 C23.765625,12.7849121 24.6814453,11.8945312 25.875,11.8945312 L28.7578125,11.8945312 L28.7578125,7.65625 L25.875,7.65625 C22.2944766,7.65625 19.4077969,10.4760742 19.4077969,13.957207 L19.4077969,16.8847656 L15.1875,16.8847656 L15.1875,21.1230469 L19.4077969,21.1230469 L19.4077969,32.265625 L4.21875,32.265625 C3.44334375,32.265625 2.8125,31.6523047 2.8125,30.8984375 L2.8125,4.1015625 C2.8125,3.34769531 3.44334375,2.734375 4.21875,2.734375 L31.78125,2.734375 C32.5566563,2.734375 33.1875,3.34769531 33.1875,4.1015625 L33.1875,30.8984375 Z" id="Shape"></path>
            </g>
        </g>
    </g>
</svg>