<?xml version="1.0" encoding="UTF-8"?>
<svg width="39px" height="38px" viewBox="0 0 39 38" version="1.1" xmlns="http://www.w3.org/2000/svg" xmlns:xlink="http://www.w3.org/1999/xlink">
    <!-- Generator: Sketch 52.6 (67491) - http://www.bohemiancoding.com/sketch -->
    <title>instagram</title>
    <desc>Created with Sketch.</desc>
    <g id="Page-1" stroke="none" stroke-width="1" fill="none" fill-rule="evenodd">
        <g id="Desktop-HD" transform="translate(-361.000000, -1994.000000)" fill="#9DC154">
            <g id="instagram" transform="translate(361.000000, 1994.000000)">
                <path d="M27.6711855,0 L11.3288906,0 C5.08211133,0 0,4.95180078 0,11.0384063 L0,26.9615938 C0,33.0481992 5.08211133,38 11.3288906,38 L27.6711094,38 C33.9178887,38 39,33.0481992 39,26.961668 L39,11.0384063 C39,4.95180078 33.9178887,0 27.6711855,0 Z M35.953125,26.9615937 C35.953125,31.4112305 32.2378418,35.03125 27.6711855,35.03125 L11.3288906,35.03125 C6.7621582,35.03125 3.046875,31.4112305 3.046875,26.961668 L3.046875,11.0384062 C3.046875,6.58876953 6.7621582,2.96875 11.3288906,2.96875 L27.6711094,2.96875 C32.2378418,2.96875 35.953125,6.58876953 35.953125,11.0384062 L35.953125,26.9615937 Z" id="Shape" fill-rule="nonzero"></path>
                <path d="M19.5,8.76923077 C13.7102391,8.76923077 9,13.3586945 9,19 C9,24.6413055 13.7102391,29.2307692 19.5,29.2307692 C25.2897609,29.2307692 30,24.6413055 30,19 C30,13.3586945 25.2897609,8.76923077 19.5,8.76923077 Z M19.5,26.2653289 C15.3884891,26.2653289 12.0434783,23.0060875 12.0434783,19 C12.0434783,14.9939125 15.3884891,11.7346711 19.5,11.7346711 C23.6115109,11.7346711 26.9565217,14.9939125 26.9565217,19 C26.9565217,23.0060875 23.6115109,26.2653289 19.5,26.2653289 Z" id="Shape" fill-rule="nonzero"></path>
                <ellipse id="Oval" cx="30" cy="8.76923077" rx="1.5" ry="1.46153846"></ellipse>
            </g>
        </g>
    </g>
</svg>