<?xml version="1.0" encoding="UTF-8"?>
<svg width="42px" height="44px" viewBox="0 0 42 44" version="1.1" xmlns="http://www.w3.org/2000/svg" xmlns:xlink="http://www.w3.org/1999/xlink">
    <!-- Generator: Sketch 52.6 (67491) - http://www.bohemiancoding.com/sketch -->
    <title>planta</title>
    <desc>Created with Sketch.</desc>
    <g id="Page-1" stroke="none" stroke-width="1" fill="none" fill-rule="evenodd" opacity="0.112327939">
        <g id="Desktop-HD" transform="translate(-79.000000, -1602.000000)" fill="#ffffff" fill-rule="nonzero">
            <g id="planta" transform="translate(79.000000, 1602.000000)">
                <path d="M41.9639368,20.5066059 C41.8127486,17.5186915 41.3217434,14.5571389 40.5002112,11.6779812 C40.3731017,11.2746856 39.9956667,11 39.5686231,11 C39.1415795,11 38.7641445,11.2746856 38.637035,11.6779812 C38.5975349,11.800708 37.6183799,14.690016 32.4728088,15.6234001 C26.6707588,16.6789606 20.2973495,20.6513464 20.0136171,26.8917014 C19.9181501,29.1397996 20.6004955,31.3528955 21.9480047,33.1656275 C21.8717864,33.2135074 21.7933427,33.2641391 21.7176807,33.3114687 C17.5746309,35.9338597 14.3016939,38.0048057 13.0360247,42.7773922 C12.9412956,43.1123425 13.0364894,43.4717959 13.2850664,43.717777 C13.5336433,43.9637582 13.8969796,44.0580467 14.2356094,43.9644501 C14.5742393,43.8708536 14.8355466,43.603915 14.9192292,43.266098 C15.991849,39.2227178 18.833624,37.4241923 22.7669344,34.935535 L23.2531739,34.6267918 C23.9996115,35.312593 24.8429534,35.8873028 25.7566953,36.3328594 C27.1458368,37.0194508 28.6767751,37.3786605 30.2296536,37.3823662 C32.7902389,37.3474578 35.2549594,36.4135424 37.1838798,34.7473172 C40.6181549,31.8948823 42.2704791,26.9704007 41.9639368,20.5066059 Z M21.9591314,26.9786559 C22.1927934,21.790009 27.7561744,18.4400627 32.8238582,17.5193365 C34.6839483,17.2313792 36.4500087,16.5164694 37.980556,15.4318803 C37.1460489,18.2325828 35.2133303,22.2666072 30.7331396,26.5488369 C30.2218649,27.0369924 29.7183789,27.4877244 29.218231,27.9213958 C28.7890044,26.7548164 28.5718373,25.5223066 28.5767731,24.2808677 C28.6305431,23.7515443 28.2403576,23.2793234 27.7052695,23.2261327 C27.1701814,23.172942 26.6928175,23.5589238 26.6390475,24.0882471 C26.46547,25.7992678 27.1953856,28.099157 27.6154209,29.2455244 C26.2156742,30.3462132 24.867667,31.2784966 23.5853077,32.113369 C22.4574653,30.6402632 21.8825744,28.8250234 21.9591314,26.9786559 Z M35.9343445,33.273495 C33.1437526,35.5931966 29.6610761,36.0912582 26.6195757,34.6058787 C26.0228213,34.3140086 25.4626689,33.9540169 24.9505614,33.5332575 C27.5013984,31.8930593 29.8904704,30.0189393 32.0861538,27.9357047 C32.6742032,27.3738031 33.2082878,26.8168546 33.7173372,26.2632082 C34.3904623,26.4602795 35.0877723,26.5649065 35.7896966,26.5741527 C36.6054327,26.5994746 37.4100293,26.3816537 38.099056,25.9489615 C38.5445787,25.6501818 38.6608995,25.0506965 38.3588659,24.6099736 C38.0568322,24.1692508 37.450818,24.0541831 37.0052953,24.3529628 C36.4377467,24.6416961 35.7864544,24.7265102 35.1627035,24.5929129 C37.0972909,22.2422543 38.6023254,19.5756387 39.6100703,16.713082 C40.3817112,21.6320601 40.6587676,29.3451367 35.9343445,33.273495 Z" id="Shape"></path>
                <path d="M21.9863831,17.1088469 C22.0818501,14.8606766 21.3995047,12.6475098 20.0519956,10.8347198 C20.1282139,10.7868383 20.2066576,10.736205 20.2823195,10.6888738 C24.4253692,8.06639879 27.6983062,5.99538648 28.9639753,1.222647 C29.0587044,0.887685969 28.9635106,0.52822107 28.7149336,0.282232034 C28.4663567,0.0362429977 28.1030205,-0.0580485368 27.7643906,0.0355510084 C27.4257608,0.129150554 27.1644535,0.396097734 27.0807709,0.733925517 C26.0081511,4.77908641 23.1663762,6.57766951 19.2330659,9.06640659 L18.7468264,9.37515968 C18.0003888,8.68933653 17.1570469,8.1146083 16.2433051,7.6690374 C12.4874667,5.83523113 8.21479018,6.4285214 4.81445182,9.2546304 C1.38184585,12.1055057 -0.270478257,17.0301451 0.0360640263,23.4941471 C0.18725222,26.4821572 0.678257366,29.4438048 1.49978952,32.3230547 C1.62565362,32.7255499 2.00187247,32.9999974 2.42776144,33 L2.43276849,33 C2.85887506,32.9975647 3.23470396,32.7233905 3.36296576,32.3214036 C3.40246576,32.1986729 4.38162079,29.3092723 9.52719172,28.3758583 C15.3292416,27.321915 21.7026507,23.3494019 21.9863831,17.1088469 Z M6.06565617,10.7268488 C7.65111409,9.35547793 9.67733828,8.58564243 11.7831426,8.5545699 C13.0324334,8.55705352 14.2642036,8.84544168 15.3820937,9.39717416 C15.9788481,9.68905366 16.5390005,10.0490569 17.0511079,10.4698298 C14.499811,12.1091241 12.1101812,13.9823821 9.91384668,16.0648101 C9.32635367,16.6261794 8.79226911,17.1831457 8.28321976,17.7368099 C7.26790276,17.4473195 5.32683919,17.0939871 3.90094469,18.051617 C3.45542198,18.3504063 3.33910113,18.9499108 3.6411348,19.3906478 C3.94316847,19.8313848 4.54918265,19.9464562 4.99470536,19.6476669 C5.56233512,19.359155 6.21360842,19.2745352 6.83729709,19.4082594 C4.90251056,21.7586558 3.39745233,24.4252127 2.38993045,27.2877925 C1.61828953,22.3686567 1.34123317,14.655333 6.06565617,10.7268488 Z M9.17447337,26.4815122 C7.31438325,26.7694787 5.54832297,27.4844114 4.01777568,28.5690353 C5.09518236,25.1862867 6.9069908,22.0773866 9.32635367,19.4599934 C9.91329035,18.799559 10.5558608,18.127567 11.2640792,17.4500713 C11.7753539,16.9619002 12.2788399,16.5111537 12.7789878,16.0774684 C13.2082144,17.2440852 13.4253815,18.4766345 13.4204456,19.7181132 C13.3666756,20.2474536 13.7568611,20.7196896 14.2919492,20.772882 C14.8270374,20.8260744 15.3044012,20.4400803 15.3581712,19.9107399 C15.5317486,18.1996644 14.8018331,15.8997015 14.3817978,14.7532974 C15.7815444,13.6525733 17.1295516,12.7202601 18.4119109,11.8853609 C19.5402477,13.3591051 20.1151658,15.1752673 20.0380871,17.02244 C19.8072068,22.2107028 14.243826,25.5607565 9.17614239,26.4815122 L9.17447337,26.4815122 Z" id="Shape"></path>
            </g>
        </g>
    </g>
</svg>