<?xml version="1.0" encoding="UTF-8"?>
<svg width="34px" height="25px" viewBox="0 0 34 25" version="1.1" xmlns="http://www.w3.org/2000/svg" xmlns:xlink="http://www.w3.org/1999/xlink">
    <!-- Generator: Sketch 52.6 (67491) - http://www.bohemiancoding.com/sketch -->
    <title>sobre</title>
    <desc>Created with Sketch.</desc>
    <g id="Page-1" stroke="none" stroke-width="1" fill="none" fill-rule="evenodd">
        <g id="Desktop-HD" transform="translate(-954.000000, -1856.000000)" fill="#000000">
            <g id="Group-10" transform="translate(954.000000, 1849.000000)">
                <g id="sobre" transform="translate(0.000000, 7.000000)">
                    <path d="M29.8493515,0 L4.15766362,0 C1.86426541,0 0,1.80125068 0,4.01712887 L0,20.9828711 C0,23.1987493 1.86426541,25 4.15766362,25 L29.8423165,25 C32.1357147,25 33.9999802,23.1987493 33.9999802,20.9828711 L33.9999802,4.02392605 C34.0070151,1.80804785 32.1427497,0 29.8493515,0 Z M32.1075749,20.9828711 C32.1075749,22.1859706 31.0945401,23.1647635 29.8493515,23.1647635 L4.15766362,23.1647635 C2.91247502,23.1647635 1.89944023,22.1859706 1.89944023,20.9828711 L1.89944023,4.02392605 C1.89944023,2.82082654 2.91247502,1.84203371 4.15766362,1.84203371 L29.8423165,1.84203371 C31.0875051,1.84203371 32.1005399,2.82082654 32.1005399,4.02392605 L32.1005399,20.9828711 L32.1075749,20.9828711 Z" id="Shape" fill-rule="nonzero"></path>
                    <path d="M21.4093857,12.7847847 L29.6720199,5.60233757 C30.0564911,5.26354289 30.091443,4.68759193 29.7419238,4.3081419 C29.3924046,3.93546775 28.7982219,3.90158828 28.4067604,4.24038296 L17.012434,14.1535152 L14.7894918,12.2291615 C14.7825014,12.2223856 14.775511,12.2156097 14.775511,12.2088338 C14.7265783,12.1614025 14.6776456,12.1207472 14.6217226,12.0800918 L5.57616529,4.23360707 C5.18470377,3.89481239 4.59052111,3.92869186 4.24100189,4.3081419 C3.89148268,4.68759193 3.9264346,5.26354289 4.31789612,5.60233757 L12.6783957,12.8457678 L4.35284804,20.4008891 C3.97536729,20.7464597 3.95439614,21.3224106 4.31090573,21.6950848 C4.49964611,21.8848098 4.75129994,21.9864482 5.00295378,21.9864482 C5.23363646,21.9864482 5.46431914,21.9051375 5.64606913,21.742516 L14.0974437,14.0789804 L16.3902898,16.0643172 C16.5720398,16.2201628 16.7957321,16.2946976 17.0194244,16.2946976 C17.2431167,16.2946976 17.4737994,16.2133869 17.648559,16.0575413 L20.0043185,14.0112215 L28.4067604,21.7492919 C28.5885104,21.9186893 28.8261834,22 29.0568661,22 C29.30852,22 29.5531834,21.9051375 29.7419238,21.7154125 C30.0984334,21.3495142 30.0844526,20.7667874 29.7069719,20.4212168 L21.4093857,12.7847847 Z" id="Path"></path>
                </g>
            </g>
        </g>
    </g>
</svg>