<?xml version="1.0" encoding="UTF-8"?>
<svg width="31px" height="19px" viewBox="0 0 31 19" version="1.1" xmlns="http://www.w3.org/2000/svg" xmlns:xlink="http://www.w3.org/1999/xlink">
    <!-- Generator: Sketch 52.6 (67491) - http://www.bohemiancoding.com/sketch -->
    <title>dinero</title>
    <desc>Created with Sketch.</desc>
    <g id="Page-1" stroke="none" stroke-width="1" fill="none" fill-rule="evenodd">
        <g id="Desktop-HD" transform="translate(-85.000000, -965.000000)" fill="#000000">
            <g id="Group-9" transform="translate(85.000000, 960.000000)">
                <g id="dinero" transform="translate(0.000000, 5.000000)">
                    <path d="M28.3487029,0 L2.6576909,0 C1.19403504,0 0,1.20244981 0,2.67642055 L0,16.3235794 C0,17.804015 1.19403504,19 2.6576909,19 L28.3422833,19 C29.8123587,19 30.9999742,17.7975502 30.9999742,16.3235794 L30.9999742,2.67642055 C31.0063938,1.20244981 29.8123587,0 28.3487029,0 Z M1.28390865,2.70227969 C1.29674773,1.92650561 1.91302388,1.29942157 2.68336907,1.29295679 L5.9701752,1.29295679 L5.9701752,1.96529432 C5.9701752,4.1051378 4.2625767,5.88295339 2.13770789,5.88295339 L1.28390865,5.88295339 L1.28390865,2.70227969 Z M5.9701752,17.1187479 L5.9701752,17.713508 L2.68336907,17.713508 C1.92586297,17.713508 1.28390865,17.1187479 1.28390865,16.3559034 L1.28390865,13.2528071 L2.13770789,13.2528071 C4.25615716,13.2528071 5.9701752,14.9789044 5.9701752,17.1058183 C5.9701752,17.1122831 5.9701752,17.1187479 5.9701752,17.1187479 Z M29.7866806,16.3559034 C29.7866806,17.1187479 29.1447262,17.713508 28.3872201,17.713508 L25.100396,17.713508 L25.100414,17.1252127 C25.0939945,14.991834 26.801593,13.2592719 28.9200422,13.2528071 C28.9264618,13.2528071 28.9328813,13.2528071 28.9328813,13.2528071 L29.7866806,13.2528071 L29.7866806,16.3559034 Z M29.7866806,11.9598503 L28.9328813,11.9598503 C26.1082823,11.9598503 23.8165054,14.2677782 23.8165054,17.1122831 C23.8165054,17.1187479 23.8165054,17.1187479 23.8165054,17.1252127 L23.8165054,17.713508 L7.25408384,17.713508 L7.25408384,17.1252127 C7.26050339,14.2807077 4.975146,11.9663151 2.15054698,11.9598503 C2.14412744,11.9598503 2.14412744,11.9598503 2.13770789,11.9598503 L1.28390865,11.9598503 L1.28390865,7.17591017 L2.13770789,7.17591017 C4.96872646,7.17591017 7.25408384,4.82272882 7.25408384,1.96529432 L7.25408384,1.29295679 L23.8165054,1.29295679 L23.8165054,1.9329704 C23.8165054,4.78394012 26.1018628,7.11126233 28.9328813,7.11126233 L29.7866806,7.11126233 L29.7866806,11.9598503 Z M29.7866806,5.81830555 L28.9328813,5.81830555 C26.8080125,5.81184076 25.0939945,4.07927867 25.100414,1.93943518 L25.100414,1.9329704 L25.100396,1.29295679 L28.3872201,1.29295679 C29.1575653,1.30588636 29.780261,1.92650561 29.7866806,2.70227969 L29.7866806,5.81830555 Z" id="Shape" fill-rule="nonzero"></path>
                    <path d="M16,3 C12.1320755,3 9,6.13207547 9,10 C9,13.8679245 12.1320755,17 16,17 C19.8679245,17 23,13.8679245 23,10 C22.9937107,6.13836478 19.8616352,3.00628931 16,3 Z M16,15.7421384 C12.8301887,15.7421384 10.2578616,13.1698113 10.2578616,10 C10.2578616,6.83018868 12.8301887,4.25786164 16,4.25786164 C19.1698113,4.25786164 21.7421384,6.83018868 21.7421384,10 C21.7358491,13.1698113 19.1698113,15.7358491 16,15.7421384 Z" id="Shape" fill-rule="nonzero"></path>
                    <path d="M15.5,9.3074884 C14.8767123,9.31411531 14.3630137,8.82372432 14.3630137,8.22067594 C14.3561644,7.61762757 14.8630137,7.12060968 15.4863014,7.12060968 C15.4863014,7.12060968 15.4931507,7.12060968 15.5,7.12060968 C16.1232877,7.12060968 16.630137,7.61100066 16.630137,8.21404904 C16.630137,8.57852883 16.9383562,8.87673956 17.3150685,8.87673956 C17.6917808,8.87673956 18,8.57852883 18,8.21404904 C18,7.13386349 17.260274,6.18621604 16.1849315,5.8880053 L16.1849315,5.66269052 C16.1849315,5.29821074 15.8767123,5 15.5,5 C15.1232877,5 14.8150685,5.29821074 14.8150685,5.66269052 L14.8150685,5.8880053 C13.4863014,6.25248509 12.7191781,7.59111995 13.0958904,8.87673956 C13.4041096,9.91716368 14.3835616,10.6328694 15.5,10.6328694 C16.1232877,10.6328694 16.630137,11.1232604 16.630137,11.7263088 C16.630137,12.3293572 16.1232877,12.8197482 15.5,12.8197482 C14.8767123,12.8197482 14.369863,12.3293572 14.369863,11.7263088 C14.369863,11.361829 14.0616438,11.0636183 13.6849315,11.0636183 C13.3082192,11.0636183 13,11.361829 13,11.7263088 C13,12.8064944 13.739726,13.7541418 14.8150685,14.0523526 L14.8150685,14.3373095 C14.8150685,14.7017893 15.1232877,15 15.5,15 C15.8767123,15 16.1849315,14.7017893 16.1849315,14.3373095 L16.1849315,14.0523526 C17.5136986,13.6878728 18.2808219,12.3492379 17.9041096,11.0636183 C17.5958904,10.0231942 16.6164384,9.3074884 15.5,9.3074884 Z" id="Path"></path>
                </g>
            </g>
        </g>
    </g>
</svg>