<?xml version="1.0" encoding="UTF-8"?>
<svg width="50px" height="50px" viewBox="0 0 50 50" version="1.1" xmlns="http://www.w3.org/2000/svg" xmlns:xlink="http://www.w3.org/1999/xlink">
    <!-- Generator: Sketch 52.6 (67491) - http://www.bohemiancoding.com/sketch -->
    <title>Group 7</title>
    <desc>Created with Sketch.</desc>
    <g id="Page-1" stroke="none" stroke-width="1" fill="none" fill-rule="evenodd" fill-opacity="0.3">
        <g id="Desktop-HD" transform="translate(-895.000000, -604.000000)" fill="#85B065">
            <g id="Group-7" transform="translate(895.000000, 604.000000)">
                <circle id="Oval" cx="3" cy="3" r="3"></circle>
                <circle id="Oval" cx="14" cy="3" r="3"></circle>
                <circle id="Oval" cx="25" cy="3" r="3"></circle>
                <circle id="Oval" cx="36" cy="3" r="3"></circle>
                <circle id="Oval" cx="47" cy="3" r="3"></circle>
                <circle id="Oval" cx="3" cy="14" r="3"></circle>
                <circle id="Oval" cx="14" cy="14" r="3"></circle>
                <circle id="Oval" cx="25" cy="14" r="3"></circle>
                <circle id="Oval" cx="36" cy="14" r="3"></circle>
                <circle id="Oval" cx="47" cy="14" r="3"></circle>
                <circle id="Oval" cx="3" cy="25" r="3"></circle>
                <circle id="Oval" cx="14" cy="25" r="3"></circle>
                <circle id="Oval" cx="25" cy="25" r="3"></circle>
                <circle id="Oval" cx="36" cy="25" r="3"></circle>
                <circle id="Oval" cx="47" cy="25" r="3"></circle>
                <circle id="Oval" cx="3" cy="36" r="3"></circle>
                <circle id="Oval" cx="14" cy="36" r="3"></circle>
                <circle id="Oval" cx="25" cy="36" r="3"></circle>
                <circle id="Oval" cx="36" cy="36" r="3"></circle>
                <circle id="Oval" cx="47" cy="36" r="3"></circle>
                <circle id="Oval" cx="3" cy="47" r="3"></circle>
                <circle id="Oval" cx="14" cy="47" r="3"></circle>
                <circle id="Oval" cx="25" cy="47" r="3"></circle>
                <circle id="Oval" cx="36" cy="47" r="3"></circle>
                <circle id="Oval" cx="47" cy="47" r="3"></circle>
            </g>
        </g>
    </g>
</svg>