<?xml version="1.0" encoding="UTF-8"?>
<svg width="34px" height="32px" viewBox="0 0 34 32" version="1.1" xmlns="http://www.w3.org/2000/svg" xmlns:xlink="http://www.w3.org/1999/xlink">
    <!-- Generator: Sketch 52.6 (67491) - http://www.bohemiancoding.com/sketch -->
    <title>Group 4</title>
    <desc>Created with Sketch.</desc>
    <g id="Page-1" stroke="none" stroke-width="1" fill="none" fill-rule="evenodd">
        <g id="Desktop-HD" transform="translate(-1253.000000, -44.000000)">
            <g id="Group-4" transform="translate(1253.000000, 44.000000)">
                <g id="Group-3">
                    <g id="dia-y-noche" fill="#000000" fill-rule="nonzero">
                        <path d="M33.2195273,8.8817842e-16 L0.780472656,8.8817842e-16 C0.35009375,8.8817842e-16 0,0.3295 0,0.7345625 L0,31.2654375 C0,31.6705 0.35009375,32 0.780472656,32 L33.2195273,32 C33.6498398,32 34,31.6705 34,31.2654375 L34,0.7345625 C34,0.3295 33.6499063,0 33.2195273,8.8817842e-16 Z M16.5019531,23.282125 C14.6123633,23.1701875 12.8538594,22.4225 11.5059453,21.1483125 C11.4921992,21.1353125 11.460125,21.1049375 11.4929961,21.0520625 C11.5213516,21.0065 11.553625,21.0150625 11.5749414,21.020625 C13.211457,21.4506875 15.0625977,21.16425 16.5019531,20.089875 L16.5019531,23.282125 Z M33.0039062,31.0625 L17.4980469,31.0625 L17.4980469,24.221125 C17.8956875,24.2 18.2912031,24.15375 18.6791484,24.0828125 C18.9490898,24.033375 19.1254648,23.7873125 19.0730039,23.5331875 C19.0204766,23.279125 18.7596328,23.11325 18.4890273,23.1625 C18.1635039,23.2220625 17.8318047,23.2620625 17.4980469,23.282 L17.4980469,8.718 C21.5419219,8.960375 24.7529297,12.133875 24.7529297,16 C24.7529297,18.7240625 23.1589141,21.202375 20.5929102,22.46775 C20.3492656,22.5879375 20.2552344,22.87125 20.3828672,23.1005625 C20.5106328,23.3299375 20.8117852,23.41825 21.0551641,23.29825 C23.9504766,21.8704375 25.7490234,19.0739375 25.7490234,16.0000625 C25.7490234,11.6169375 22.0915,8.0226875 17.4980469,7.778875 L17.4980469,3.752125 C17.4980469,3.49325 17.2751211,3.283375 17,3.283375 C16.7248789,3.283375 16.5019531,3.49325 16.5019531,3.752125 L16.5019531,7.7786875 C15.6061328,7.825875 14.7310977,8.0005 13.8941133,8.2996875 C13.6369883,8.391625 13.5076953,8.6623125 13.6053125,8.9043125 C13.7033281,9.1470625 13.991332,9.26775 14.247793,9.1760625 C14.9713555,8.9174375 15.7275898,8.763875 16.5018867,8.7178125 L16.5018867,11.91 C15.0618672,10.835125 13.2105938,10.549375 11.574875,10.97925 C11.5535586,10.98475 11.5212188,10.9933125 11.4929297,10.9478125 C11.4600586,10.8949375 11.4921328,10.8645625 11.5059453,10.8515625 C11.7569609,10.6141875 12.0277656,10.391125 12.3108555,10.1885 C12.5297305,10.03175 12.5722305,9.7376875 12.40575,9.531625 C12.2392695,9.325625 11.9268281,9.2855625 11.7077539,9.4423125 C11.3885391,9.6708125 11.0831367,9.9224375 10.8000469,10.1900625 C10.448625,10.5221875 10.3816875,11.017125 10.6333672,11.421625 C10.8823906,11.82175 11.3685508,12.006875 11.8426914,11.88225 C13.5035781,11.4458125 15.3253672,11.923 16.5018867,13.203375 L16.5018867,18.7965625 C15.3262305,20.076 13.504043,20.55425 11.8426914,20.1176875 C11.3681523,19.993 10.8823242,20.1781875 10.6333672,20.5783125 C10.3816875,20.9828125 10.448625,21.4776875 10.8000469,21.8098125 C12.3362891,23.2620625 14.3452773,24.10825 16.5018867,24.2213125 L16.5018867,31.0625 L0.99609375,31.0625 L0.99609375,0.9375 L16.5019531,0.9375 L16.5019531,1.564625 C16.5019531,1.8235 16.7248789,2.033375 17,2.033375 C17.2751211,2.033375 17.4980469,1.8235 17.4980469,1.564625 L17.4980469,0.9375 L33.0039062,0.9375 L33.0039062,31.0625 Z" id="Shape"></path>
                        <path d="M27.0454545,16 C27.0454545,16.8020139 27.6272444,17.4545455 28.342311,17.4545455 L30.3849617,17.4545455 C31.1000283,17.4545455 31.6818182,16.8020831 31.6818182,16 C31.6818182,15.1979169 31.1000283,14.5454545 30.3849617,14.5454545 L28.342311,14.5454545 C27.6271827,14.5454545 27.0454545,15.1979861 27.0454545,16 Z M30.7562238,16 C30.7562238,16.2296214 30.5896896,16.4164742 30.3849,16.4164742 L28.3422493,16.4164742 C28.1375215,16.4164742 27.9709256,16.2296214 27.9709256,16 C27.9709256,15.7703786 28.1374598,15.5835258 28.3422493,15.5835258 L30.3849,15.5835258 C30.5896896,15.5835258 30.7562238,15.7703786 30.7562238,16 Z" id="Shape"></path>
                        <path d="M25.6843707,10.9844398 C26.0634292,11.605619 26.9075231,11.8223398 27.5672687,11.4618212 L29.4474778,10.4345078 C30.1056494,10.0749202 30.3319697,9.27562283 29.951993,8.65270585 C29.5711637,8.02836145 28.7289061,7.81468175 28.069095,8.1752003 L26.1888858,9.20251371 C25.5307142,9.56216339 25.304394,10.3615228 25.6843707,10.9844398 Z M26.6807438,10.008762 L28.560953,8.98144862 C28.7492362,8.87842559 28.9907713,8.93899817 29.1000949,9.1181093 C29.2088939,9.29647568 29.1440998,9.52536059 28.9556198,9.62832156 L27.0754107,10.655635 C26.8869307,10.7585339 26.6450677,10.6972786 26.5362687,10.5189122 C26.4274697,10.3406079 26.4923294,10.1117851 26.6807438,10.008762 Z" id="Shape"></path>
                        <path d="M22.3292039,7.82639186 C22.9954786,8.18617005 23.8431288,7.96697071 24.2228302,7.35164509 L25.3145788,5.58231396 C25.6967205,4.96291539 25.4691108,4.16813266 24.8071891,3.81057608 C24.1437504,3.45215555 23.2966938,3.66444319 22.9136287,4.28532284 L21.8218141,6.05465398 C21.4396065,6.67399084 21.6672822,7.46883528 22.3292039,7.82639186 Z M22.6785661,6.5174287 L23.7703807,4.74809757 C23.8799975,4.5704918 24.1224471,4.50952081 24.3125286,4.61220879 C24.5020825,4.71458821 24.5672458,4.94218032 24.4578269,5.11947753 L23.3660782,6.88874695 C23.2567253,7.06610587 23.0134183,7.12720028 22.8238644,7.02469744 C22.6340466,6.92219459 22.5688834,6.6952196 22.6785661,6.5174287 Z" id="Shape"></path>
                        <path d="M29.4474778,21.5654842 L27.5672687,20.5380885 C26.9092938,20.1785962 26.0644785,20.3926033 25.6843707,21.0155082 L25.6843707,21.0155702 C25.304394,21.6385371 25.5307142,22.4378985 26.1888858,22.797515 L28.069095,23.8249727 C28.7265452,24.1840306 29.5698521,23.9739957 29.951993,23.3474289 C30.3319697,22.7245241 30.1056494,21.9251006 29.4474778,21.5654842 Z M29.1000949,22.8819882 C28.9910992,23.0606792 28.7499576,23.1219394 28.560953,23.0187219 L26.6807438,21.9913262 C26.4923294,21.888357 26.4274697,21.6595158 26.5362687,21.4811351 C26.6450677,21.3028165 26.8868651,21.2414943 27.0754107,21.3444014 L28.9556198,22.3717971 C29.1440998,22.4747663 29.2088939,22.7036075 29.1000949,22.8819882 Z" id="Shape"></path>
                        <path d="M24.2228302,24.6482499 C23.8406884,24.0289025 22.9911915,23.8159324 22.3292039,24.173495 C21.6672822,24.5310577 21.4396065,25.3259156 21.8218141,25.9453248 L22.9136287,27.7146243 C23.2965619,28.3353293 24.1434207,28.5479909 24.8071891,28.1893791 C25.4691108,27.8318164 25.6967205,27.0370202 25.3145788,26.4176111 L24.2228302,24.6482499 Z M24.3125286,27.3877328 C24.1217216,27.490731 23.8796677,27.428895 23.7703807,27.25178 L22.6785661,25.4824804 C22.5691472,25.3051185 22.6343105,25.0775225 22.8238644,24.9751414 C23.0136161,24.8727602 23.2566593,24.9338557 23.3660782,25.1110942 L24.4578269,26.8803937 C24.5672458,27.0577556 24.5020825,27.2853516 24.3125286,27.3877328 Z" id="Shape"></path>
                        <path d="M10.8182162,2.90909091 C9.96604554,2.90909091 9.27272727,3.56161121 9.27272727,4.36363636 C9.27272727,5.16566152 9.96604554,5.81818182 10.8182162,5.81818182 C11.670387,5.81818182 12.3636364,5.16566152 12.3636364,4.36363636 C12.3636364,3.56161121 11.670387,2.90909091 10.8182162,2.90909091 Z M10.8182162,4.84610867 C10.5355594,4.84610867 10.305578,4.62966038 10.305578,4.36363636 C10.305578,4.09761235 10.5355594,3.88116406 10.8182162,3.88116406 C11.1008042,3.88116406 11.3307856,4.09761235 11.3307856,4.36363636 C11.3307856,4.62966038 11.1008731,4.84610867 10.8182162,4.84610867 Z" id="Shape" fill-opacity="0.2"></path>
                        <path d="M6.95454545,20.3636364 C6.10236092,20.3636364 5.40909091,21.0161258 5.40909091,21.8181818 C5.40909091,22.6202379 6.10243231,23.2727273 6.95454545,23.2727273 C7.8066586,23.2727273 8.5,22.6202379 8.5,21.8181818 C8.50007139,21.016193 7.80672999,20.3636364 6.95454545,20.3636364 Z M6.95454545,22.2649331 C6.69282907,22.2649331 6.47994356,22.0645703 6.47994356,21.818249 C6.47994356,21.5719277 6.69282907,21.3715649 6.95454545,21.3715649 C7.21626184,21.3715649 7.42914735,21.5719277 7.42914735,21.818249 C7.42921874,22.0645031 7.21626184,22.2649331 6.95454545,22.2649331 Z" id="Shape" fill-opacity="0.2"></path>
                        <path d="M5.40909091,10.9090909 C5.40909091,10.1070311 4.71576595,9.45454545 3.86363636,9.45454545 C3.01150678,9.45454545 2.31818182,10.1070311 2.31818182,10.9090909 C2.31818182,11.7110952 3.01150678,12.3636364 3.86363636,12.3636364 C4.71576595,12.3636364 5.40909091,11.7110952 5.40909091,10.9090909 Z M3.86363636,11.5308178 C3.49936498,11.5308178 3.20305159,11.2519346 3.20305159,10.9090909 C3.20305159,10.5662472 3.49936498,10.2873641 3.86363636,10.2873641 C4.22790775,10.2873641 4.52422114,10.5662472 4.52422114,10.9090909 C4.52422114,11.251879 4.22790775,11.5308178 3.86363636,11.5308178 Z" id="Shape" fill-opacity="0.2"></path>
                        <path d="M9.27272727,27.6363636 C9.27272727,28.4384382 9.96603692,29.0909091 10.8181818,29.0909091 C11.6703267,29.0909091 12.3636364,28.4383824 12.3636364,27.6363636 C12.3636364,26.8343449 11.6703267,26.1818182 10.8181818,26.1818182 C9.96603692,26.1818182 9.27272727,26.8343449 9.27272727,27.6363636 Z M10.8181818,27.0195207 C11.179581,27.0195207 11.4736368,27.2962791 11.4736368,27.6364195 C11.4736368,27.9765599 11.179581,28.2533183 10.8181818,28.2533183 C10.4567827,28.2533183 10.1627268,27.9765599 10.1627268,27.6364195 C10.1627268,27.2962791 10.4567827,27.0195207 10.8181818,27.0195207 Z" id="Shape" fill-opacity="0.2"></path>
                    </g>
                    <rect id="Rectangle" fill-opacity="0.864696558" fill="#FFFFFF" x="9.10955711" y="6.60674628" width="7.4" height="18.7865074"></rect>
                </g>
            </g>
        </g>
    </g>
</svg>