<?xml version="1.0" encoding="UTF-8"?>
<svg width="29px" height="26px" viewBox="0 0 29 26" version="1.1" xmlns="http://www.w3.org/2000/svg" xmlns:xlink="http://www.w3.org/1999/xlink">
    <!-- Generator: Sketch 52.6 (67491) - http://www.bohemiancoding.com/sketch -->
    <title>reloj</title>
    <desc>Created with Sketch.</desc>
    <g id="Page-1" stroke="none" stroke-width="1" fill="none" fill-rule="evenodd">
        <g id="Desktop-HD" transform="translate(-86.000000, -913.000000)" fill="#ffffff">
            <g id="Group-8" transform="translate(81.000000, 912.000000)">
                <g id="reloj" transform="translate(5.000000, 1.000000)">
                    <path d="M14,3 C7.93468685,3 3,7.93466737 3,13.999831 C3,20.065389 7.93474319,25 14,25 C20.0656512,25 25,20.0653326 25,13.999831 C25,7.93466737 20.0653131,3 14,3 Z M14,23.0064482 C9.03404458,23.0064482 4.99392043,18.9661045 4.99392043,14.0002254 C4.99392043,9.03434624 9.03398824,4.99428416 14,4.99428416 C18.9660118,4.99428416 23.0060796,9.03434624 23.0060796,14.0002254 C23.0060796,18.9663862 18.9659554,23.0064482 14,23.0064482 Z" id="Shape" fill-rule="nonzero"></path>
                    <path d="M17.1175943,13.9611561 L14.7647117,13.9611561 L14.7647117,10.019422 C14.7647117,9.45636645 14.3697059,9 13.8823559,9 C13.3950058,9 13,9.45636645 13,10.019422 L13,14.980578 C13,15.5436336 13.3950058,16 13.8823559,16 L17.1176441,16 C17.6049942,16 18,15.5436336 18,14.980578 C17.9999501,14.4175225 17.6049443,13.9611561 17.1175943,13.9611561 Z" id="Path"></path>
                    <path d="M8.66894035,21.2406992 C8.25829173,20.8941193 7.62595952,20.925694 7.25667525,21.3103648 L4.25674209,24.4353049 C3.88706226,24.8199757 3.92074144,25.4127956 4.33105101,25.7590576 C4.52205038,25.9206395 4.76136466,26 4.9997183,26 C5.27338987,26 5.54604429,25.8953161 5.74337262,25.689392 L8.74330578,22.5644519 C9.1129291,22.1797282 9.07924993,21.5869082 8.66894035,21.2406992 Z" id="Path"></path>
                    <path d="M24.7432586,24.4355579 L21.7431298,21.3104881 C21.3744431,20.9254835 20.7417871,20.8942254 20.3310552,21.2408196 C19.9203798,21.5870959 19.8873765,22.1798875 20.2567414,22.5646273 L23.2568702,25.689697 C23.4538723,25.8953118 23.7265445,26 24.0002339,26 C24.2382641,26 24.4775939,25.9206362 24.6689448,25.7593655 C25.0796202,25.4130892 25.1126235,24.8202446 24.7432586,24.4355579 Z" id="Path"></path>
                    <path d="M8.69744097,1.47276709 C6.69553613,-0.493669889 3.46858759,-0.490642844 1.50431597,1.48019192 C0.526991058,2.46021202 -0.00699066921,3.75692957 6.91169287e-05,5.13143647 C0.00747050562,6.4894374 0.54412812,7.76091053 1.51166042,8.71163113 C1.70779722,8.90399127 1.96200646,9 2.2165573,9 C2.47446722,9 2.73237715,8.90096423 2.92885556,8.7042063 L8.70512703,2.90964254 C8.89522885,2.71865313 9.00135338,2.45952665 8.99998697,2.18971985 C8.99867749,1.91979882 8.88982014,1.66175751 8.69744097,1.47276709 Z M2.32706572,6.44900065 C2.12523555,6.04103494 2.01740301,5.58960543 2.01506872,5.12064191 C2.01068482,4.29054621 2.33509338,3.50488524 2.92885556,2.90924274 C3.52125132,2.31531366 4.30443211,2.01849191 5.09193987,2.01849191 C5.55236318,2.01849191 6.0144945,2.11986936 6.44030209,2.32268137 L2.32706572,6.44900065 Z" id="Shape" fill-rule="nonzero"></path>
                    <path d="M27.4957981,1.48003773 C25.5312594,-0.490419925 22.3043764,-0.493789596 20.3026044,1.47261303 C20.1105172,1.66160014 20.0013793,1.91969406 20.000013,2.18949615 C19.9986466,2.45935535 20.1051087,2.71876287 20.2952033,2.90940626 L26.0712556,8.70386879 C26.2677266,8.90130863 26.5256267,9 26.7835269,9 C27.038068,9 27.2926092,8.90399295 27.488397,8.71095081 C28.4562342,7.7605895 28.9928714,6.48919569 28.9999309,5.13116137 C29.0069904,3.75707828 28.4726874,2.46038339 27.4957981,1.48003773 Z M26.6730796,6.44910233 L22.5599993,2.32291226 C23.7145152,1.77308483 25.1326813,1.96818305 26.0713126,2.90974894 C26.6650522,3.50538103 26.9894484,4.29062848 26.9850647,5.12110948 C26.9826736,5.58972213 26.8749021,6.04148642 26.6730796,6.44910233 Z" id="Shape" fill-rule="nonzero"></path>
                </g>
            </g>
        </g>
    </g>
</svg>