<?xml version="1.0" encoding="UTF-8"?>
<svg width="35px" height="42px" viewBox="0 0 35 42" version="1.1" xmlns="http://www.w3.org/2000/svg" xmlns:xlink="http://www.w3.org/1999/xlink">
    <!-- Generator: Sketch 52.6 (67491) - http://www.bohemiancoding.com/sketch -->
    <title>sitio</title>
    <desc>Created with Sketch.</desc>
    <g id="Page-1" stroke="none" stroke-width="1" fill="none" fill-rule="evenodd">
        <g id="Desktop-HD" transform="translate(-954.000000, -1764.000000)" fill="#ffffff" fill-rule="nonzero">
            <g id="Group-8" transform="translate(947.000000, 1759.000000)">
                <g id="sitio" transform="translate(7.000000, 5.000000)">
                    <path d="M31.8599225,7.30250391 C28.557287,2.66199609 23.3231078,0 17.5005091,0 C11.6779104,0 6.44373124,2.66199609 3.14109573,7.30250391 C-0.145316835,11.9195508 -0.904161706,17.7648516 1.10714475,22.9291289 C1.64512107,24.3394102 2.50028964,25.7095781 3.64282392,26.9935312 L16.3489339,41.4830391 C16.6362997,41.811 17.0573356,42 17.5005091,42 C17.9436826,42 18.3647186,41.811082 18.6520843,41.4830391 L31.3546456,26.9974687 C32.5022495,25.7061328 33.3563197,24.3374414 33.8898178,22.9384805 C35.90518,17.7648516 35.1463351,11.9195508 31.8599225,7.30250391 Z M31.057225,21.9099727 C30.6458214,22.9893398 29.9741749,24.0564844 29.062057,25.0829414 C29.0595222,25.0854023 29.0569873,25.0878633 29.0549595,25.0908164 L17.5005091,38.2665117 L5.93896125,25.0825313 C5.02735037,24.0569766 4.3557038,22.9899141 3.94024447,21.9002109 C2.27688625,17.6292539 2.90814447,12.7963008 5.6293735,8.97274219 C8.35913648,5.13696094 12.6862675,2.93704687 17.5005091,2.93704687 C22.3146663,2.93704687 26.6412903,5.13687891 29.3711378,8.97274219 C32.0928738,12.7963008 32.724639,17.6292539 31.057225,21.9099727 Z" id="Shape"></path>
                    <path d="M17.5,9 C12.8133504,9 9,12.8128416 9,17.5 C9,22.1871584 12.8128416,26 17.5,26 C22.1871584,26 26,22.1871584 26,17.5 C26,12.8133504 22.1866496,9 17.5,9 Z M17.5,22.9642252 C14.4870327,22.9642252 12.0356901,20.5128825 12.0356901,17.4999152 C12.0356901,14.4869479 14.4870327,12.0356053 17.5,12.0356053 C20.5129673,12.0356053 22.9643099,14.4869479 22.9643099,17.4999152 C22.9643099,20.5128825 20.5129673,22.9642252 17.5,22.9642252 Z" id="Shape"></path>
                </g>
            </g>
        </g>
    </g>
</svg>